<svg width="1024" height="1024" xmlns="http://www.w3.org/2000/svg" class="icon">
 <defs>
  <style type="text/css"/>
 </defs>
 <g>
  <title>background</title>
  <rect fill="none" id="canvas_background" height="402" width="582" y="-1" x="-1"/>
 </g>
 <g>
  <title>Layer 1</title>
  <path id="svg_1" fill="#ffffff" d="m874.66667,620.8c-12.8,0 -21.33334,8.53333 -21.33334,21.33333l0,200.53334c0,17.06666 -14.93333,32 -32,32l-618.66666,0c-17.06667,0 -32,-14.93334 -32,-32l0,-200.53334c0,-12.8 -8.53334,-21.33333 -21.33334,-21.33333s-21.33333,8.53333 -21.33333,21.33333l0,200.53334c0,40.53333 34.13333,74.66666 74.66667,74.66666l618.66666,0c40.53334,0 74.66667,-34.13333 74.66667,-74.66666l0,-200.53334c0,-12.8 -8.53333,-21.33333 -21.33333,-21.33333zm87.46666,-258.13333c0,-4.26667 0,-8.53334 -2.13333,-12.8l-110.93333,-209.06667c-2.13334,-8.53333 -10.66667,-12.8 -17.06667,-12.8l-659.2,0c-8.53333,0 -17.06667,6.4 -19.2,12.8l-87.46667,213.33333c-2.13333,4.26667 -2.13333,6.4 -2.13333,10.66667l0,72.53333c0,76.8 64,138.66667 140.8,138.66667l40.53333,0c49.06667,0 91.73334,-23.46667 117.33334,-61.86667c25.6,36.26667 72.53333,61.86667 130.13333,61.86667l44.8,0c55.46667,0 102.4,-25.6 128,-66.13333c25.6,38.4 68.26667,64 117.33333,64l40.53334,0c76.8,0 138.66666,-61.86667 138.66666,-138.66667l0,-72.53333zm-774.4,-192l631.46667,0l89.6,170.66666l-791.46667,0l70.4,-170.66666zm635.73334,360.53333l-40.53334,0c-53.33333,0 -96,-42.66667 -96,-96c0,-12.8 -8.53333,-21.33333 -21.33333,-21.33333s-21.33333,8.53333 -21.33333,21.33333l0,10.66667c0,46.93333 -46.93334,87.46666 -106.66667,87.46666l-44.8,0c-59.73333,0 -106.66667,-34.13333 -106.66667,-81.06666c0,-2.13334 0,-4.26667 -2.13333,-6.4l0,-2.13334c0,-12.8 -8.53333,-21.33333 -21.33333,-21.33333s-21.33334,8.53333 -21.33334,21.33333c0,51.2 -42.66666,91.73334 -96,91.73334l-40.53333,0c-53.33333,-2.13334 -98.13333,-44.8 -98.13333,-98.13334l0,-53.33333l812.8,0l0,51.2c0,53.33333 -42.66667,96 -96,96z"/>
 </g>
</svg>